<?xml version="1.0" standalone="no"?>
<!DOCTYPE svg PUBLIC "-//W3C//DTD SVG 20010904//EN"
 "http://www.w3.org/TR/2001/REC-SVG-20010904/DTD/svg10.dtd">
<svg version="1.0" xmlns="http://www.w3.org/2000/svg"
 width="123.000000pt" height="116.000000pt" viewBox="0 0 123.000000 116.000000"
 preserveAspectRatio="xMidYMid meet">

<g transform="translate(0.000000,116.000000) scale(0.100000,-0.100000)"
fill="#000000" stroke="none">
<path d="M135 1151 c-55 -8 -104 -37 -117 -69 -7 -17 -12 -189 -16 -482 -5
-536 -9 -514 93 -565 l60 -30 464 -3 c450 -2 465 -2 505 18 56 28 70 40 89 77
15 28 17 83 17 478 0 432 -1 447 -21 488 -11 23 -35 54 -51 70 l-31 27 -476
-2 c-262 0 -494 -4 -516 -7z m350 -363 c-2 -24 -19 -35 -30 -19 -7 13 13 53
24 47 4 -3 7 -15 6 -28z m56 -35 c-9 -17 -10 -17 -16 0 -4 9 -4 25 0 35 6 16
7 16 16 0 7 -12 7 -24 0 -35z m141 -85 c-11 -11 -32 -3 -32 12 0 4 9 6 21 3
13 -4 17 -9 11 -15z"/>
</g>
</svg>
